<?xml version="1.0" encoding="UTF-8" standalone="no"?><!-- Generator: Gravit.io --><svg xmlns="http://www.w3.org/2000/svg" xmlns:xlink="http://www.w3.org/1999/xlink" style="isolation:isolate" viewBox="0 0 365 560" width="365pt" height="560pt"><defs><clipPath id="_clipPath_Uvyo1Gl8KMPBudVqSWmvX2DzXGT7Z9xl"><rect width="365" height="560"/></clipPath></defs><g clip-path="url(#_clipPath_Uvyo1Gl8KMPBudVqSWmvX2DzXGT7Z9xl)"><g style="mix-blend-mode:overlay;"><path d="M 24.208 13.081 L 343.679 14.761 C 353.289 14.811 361.05 22.655 361 32.265 L 358.365 533.234 C 358.314 542.844 350.471 550.605 340.861 550.555 L 21.39 548.875 C 11.78 548.824 4.019 540.981 4.07 531.37 L 6.704 30.402 C 6.755 20.791 14.598 13.03 24.208 13.081 Z" style="stroke:none;fill:#698048;stroke-miterlimit:10;mix-blend-mode:color;"/></g><g opacity="0.36"><path d=" M 34.883 244.585 C 49.143 136.659 112.993 55.448 187.6 57.12 C 270.65 58.981 335.785 162.846 332.96 288.918 C 330.135 414.989 260.414 515.833 177.363 513.972 C 94.312 512.111 29.178 408.24 32.003 282.174 C 32.033 280.838 32.071 279.505 32.115 278.174 L 34.883 244.585 Z " fill="rgb(169,183,98)"/></g><g opacity="0.36"><path d=" M 34.371 267.43 C 47.857 194.038 111.116 139.194 185.724 140.865 C 268.773 142.726 334.641 213.92 332.717 299.75 C 330.794 385.58 261.806 453.752 178.754 451.891 C 95.703 450.03 29.837 378.832 31.76 293.006 C 31.781 292.097 31.809 291.189 31.844 290.284 L 34.371 267.43 Z " fill="rgb(169,183,98)"/></g><g opacity="0.36"><path d=" M 80.117 321.032 C 62.836 271.05 80.728 216.641 124.519 193.751 C 173.264 168.27 235.763 191.433 263.996 245.444 C 292.229 299.455 275.575 363.993 226.828 389.474 C 178.081 414.955 115.582 391.79 87.35 337.781 C 87.051 337.208 86.757 336.635 86.468 336.06 L 80.117 321.032 Z " fill="none" vector-effect="non-scaling-stroke" stroke-width="20" stroke="rgb(181,189,125)" stroke-linejoin="miter" stroke-linecap="square" stroke-miterlimit="3"/></g><path d=" M 138.23 263.123 C 152.722 241.046 182.75 235.11 205.242 249.875 C 227.734 264.641 234.229 294.552 219.737 316.629 C 205.244 338.706 175.217 344.642 152.724 329.877 C 130.232 315.111 123.737 285.2 138.23 263.123 Z " fill="rgb(255,255,255)"/><g opacity="0.36"><path d=" M 144.365 240.054 C 180.814 215.36 225.756 217.968 244.662 245.875 C 263.569 273.781 249.326 316.486 212.877 341.18 C 176.428 365.874 131.487 363.265 112.581 335.359 C 93.674 307.453 107.917 264.748 144.365 240.054 Z " fill="rgb(148,163,93)" vector-effect="non-scaling-stroke" stroke-width="20" stroke="rgb(255,255,255)" stroke-linejoin="miter" stroke-linecap="square" stroke-miterlimit="3"/></g><g opacity="0.36"><path d=" M 99.228 313.549 C 82.853 268.254 96.016 220.257 132.169 201.359 C 172.413 180.323 226.004 203.259 251.768 252.547 C 277.532 301.835 265.775 358.93 225.531 379.966 C 185.287 401.003 131.695 378.064 105.932 328.778 C 105.659 328.256 105.39 327.733 105.126 327.209 L 99.228 313.549 Z " fill="rgb(235,231,197)" vector-effect="non-scaling-stroke" stroke-width="20" stroke="rgb(178,187,98)" stroke-linejoin="miter" stroke-linecap="square" stroke-miterlimit="3"/></g></g></svg>